
        <svg xmlns="http://www.w3.org/2000/svg" xmlns:xlink="http://www.w3.org/1999/xlink" version="1.1" width="3167.1388459769996" height="812.9431212925459" viewBox="0 -75.21248068965002 3167.1388459769996 812.9431212925459">
			
			<g transform="scale(8.356942298850003) translate(10, 10)">
				<defs id="SvgjsDefs14685"><linearGradient id="SvgjsLinearGradient14692"><stop id="SvgjsStop14693" stop-color="#8f5e25" offset="0"/><stop id="SvgjsStop14694" stop-color="#fbf4a1" offset="0.5"/><stop id="SvgjsStop14695" stop-color="#8f5e25" offset="1"/></linearGradient><linearGradient id="SvgjsLinearGradient14696"><stop id="SvgjsStop14697" stop-color="#8f5e25" offset="0"/><stop id="SvgjsStop14698" stop-color="#fbf4a1" offset="0.5"/><stop id="SvgjsStop14699" stop-color="#8f5e25" offset="1"/></linearGradient><linearGradient id="SvgjsLinearGradient14700"><stop id="SvgjsStop14701" stop-color="#8f5e25" offset="0"/><stop id="SvgjsStop14702" stop-color="#fbf4a1" offset="0.5"/><stop id="SvgjsStop14703" stop-color="#8f5e25" offset="1"/></linearGradient></defs><g id="SvgjsG14686" featureKey="symbolFeature-0" transform="matrix(0.524808406829834,0,0,0.524808406829834,-20.467528723747638,-24.219444435607215)" fill="#fff"><g xmlns="http://www.w3.org/2000/svg"><path fill-rule="evenodd" clip-rule="evenodd" d="M130.6,61.8c1.8,1.1,4.4,3.8,4.4,9.5c0,4.7-5.4,7.2-10.3,8.5   c-9.9,1.1-16.7,3.5-16.7,6.3c0,3.9,13.2,7,29.5,7s29.5-3.1,29.5-7c0-2.8-6.9-5.2-16.8-6.3c-5.3-1.3-11.3-3.8-11.2-8.5   c0.1-5.8,2.9-8.4,4.6-9.5C149.7,59.1,154,53,154,46c0-9.4-7.6-17-17-17c-9.4,0-17,7.6-17,17C120,53.1,124.4,59.3,130.6,61.8z    M124.6,40.7c1.2-3.2,3.8-5.7,6.9-7c0.8-0.3,1.6,0.1,2,0.8c0.3,0.8-0.1,1.6-0.8,2c-2.4,1-4.3,2.9-5.3,5.3c-0.3,0.8-1.2,1.2-1.9,0.8   C124.7,42.4,124.3,41.5,124.6,40.7z"/><path fill-rule="evenodd" clip-rule="evenodd" d="M132.3,74.2c0.2-0.4,0.4-0.7,0.5-1.1C100.4,73.7,75,80.1,75,88   c0,8.3,28.2,15,63,15c34.8,0,63-6.7,63-15c0-8-26.4-14.6-59.7-15c0.2,0.4,0.3,0.7,0.6,1.1c24.2,0.5,43.2,5.3,43.2,11.2   c0,6.2-21.1,11.2-47.1,11.2c-26,0-47.1-5-47.1-11.2C90.9,79.6,109,74.8,132.3,74.2z"/><path fill-rule="evenodd" clip-rule="evenodd" d="M238,90.5c0-12.8-43.1-23.2-96.9-23.5c-0.1,0.4-0.1,0.8-0.1,1.2   c43.3,0.3,78,8.7,78,19c0,10.5-36,19.1-80.5,19.1S58,97.8,58,87.3c0-10.1,33.2-18.4,75.1-19c0-0.4-0.1-0.8-0.1-1.3   C80.6,67.7,39,78,39,90.5c0,12.6,42.3,23,95.3,23.5c0.5,0.8,0.7,1.8,0.7,2.8c0,5.7-2.6,8.3-4.4,9.5c-6.2,2.5-10.6,8.6-10.6,15.8   c0,9.4,7.6,17,17,17s17-7.6,17-17c0-7-4.3-13.1-10.4-15.7c-1.7-1.1-4.5-3.7-4.6-9.5c0-1.1,0.3-2,0.8-2.9   C194.2,113.8,238,103.4,238,90.5z M133.5,152.8c-0.3,0.8-1.2,1.1-2,0.8c-3.2-1.3-5.7-3.8-6.9-7c-0.3-0.8,0.1-1.6,0.8-1.9   c0.8-0.3,1.6,0.1,1.9,0.8c0.9,2.4,2.9,4.4,5.3,5.3C133.5,151.2,133.8,152.1,133.5,152.8z"/></g></g><g id="SvgjsG14687" featureKey="nameFeature-0" transform="matrix(0.9545819759368896,0,0,0.9545819759368896,121.70152594250327,-9.844049913148993)" fill="#fff"><path d="M10.24 40.64 c-3.28 0 -8.28 -1.44 -7.8 -3.2 l0.4 -1.48 c1.12 -4.2 2.44 1.96 9.04 1.96 c3.36 0 5 -1.64 5 -3.96 c0 -1.88 -1.2 -2.68 -4.04 -4.44 l-3.88 -2.44 c-4.32 -2.72 -6.08 -4.4 -6.08 -7.4 c0 -4.92 4.8 -8.32 9.76 -8.32 c3.04 0 6.92 1.32 6.48 2.68 l-0.48 1.52 c-1.24 3.88 -2.24 -1.48 -7.72 -1.48 c-2.84 0 -4.32 1.44 -4.32 3.56 c0 1.8 1.08 2.8 3.76 4.44 l4.2 2.6 c4.24 2.64 5.96 4.44 5.96 7.32 c0 5 -4.92 8.64 -10.28 8.64 z M24.48 48.6 c-0.6 0 -0.96 -1.36 -0.64 -1.4 c1.8 -0.2 3.72 -2.24 3.72 -6.96 l0 -23.4 c0 -2.8 -1.6 -3.36 -3.32 -3.6 c-0.32 -0.04 -0.08 -1.24 0.24 -1.24 l10.96 0 c0.32 0 0.56 1.2 0.24 1.24 c-1.72 0.24 -3.32 0.8 -3.32 3.6 l0 23.4 c0 4.04 -5.12 8.36 -7.88 8.36 z M89.84 12 c0.52 0 0.64 1.28 0.12 1.36 c-1.6 0.24 -2.84 0.84 -4.16 4.24 l-6.04 15.68 c-1.28 3.32 -1.92 5.16 -1.92 6.72 c0 0.24 -2.8 0.88 -2.92 0.6 l-6.28 -16 l-3.76 8.68 c-1.44 3.32 -1.92 5.12 -1.92 6.72 c0 0.24 -2.84 0.88 -2.96 0.6 l-9.12 -22.96 c-1.36 -3.44 -2.56 -4.04 -4.12 -4.28 c-0.52 -0.08 -0.4 -1.36 0.12 -1.36 l10.4 0 c0.52 0 0.6 1.28 0.12 1.36 c-1.84 0.32 -2.8 1.16 -1.6 4.24 l6.32 16.32 l4.08 -9.44 c0.92 -2.12 1.04 -3.4 -0.04 -6.16 c-1.48 -3.8 -2.52 -4.68 -3.56 -4.96 c-0.44 -0.12 -0.4 -1.36 0.12 -1.36 l7.96 0 c0.4 0 0.52 0.12 0.52 0.32 c0 0.52 -1.76 1.76 -0.4 5.28 l6.16 16 l6.08 -16 c1.32 -3.44 0 -3.88 -1.92 -4.24 c-0.44 -0.08 -0.36 -1.36 0.12 -1.36 l8.6 0 z M108.11999999999999 40.64 c-8.32 0 -14.44 -6.16 -14.44 -14.48 c0 -8.08 5.76 -14.8 14.52 -14.8 c8.36 0 14.44 6.12 14.44 14.44 c0 8.12 -5.72 14.84 -14.52 14.84 z M109.67999999999999 37.92 c3.52 0 8.2 -2.32 8.2 -9.88 c0 -8.08 -5.48 -13.96 -11.24 -13.96 c-3.52 0 -8.16 2.32 -8.16 9.84 c0 8.16 5.48 14 11.2 14 z M152.95999999999998 40.4 c-0.68 0 -1.04 -0.28 -1.48 -0.76 l-19.04 -19.92 l0 15.2 c0 2.72 1.6 3.16 3.88 3.72 c0.32 0.08 0.16 1.36 -0.24 1.36 l-9.48 0 c-0.32 0 -0.56 -1.24 -0.2 -1.36 c1.68 -0.56 3.28 -0.88 3.28 -3.72 l0 -15.52 c0 -2.84 -0.44 -4.2 -1.48 -5.6 c-0.36 -0.48 -0.72 -0.8 -0.72 -0.92 c0 -0.36 0.24 -0.88 0.8 -0.88 l2.96 0 c0.4 0 0.68 0.04 0.96 0.36 l18.64 19.72 l0 -15.04 c0 -2.84 -1.8 -3.16 -3.88 -3.68 c-0.32 -0.08 -0.16 -1.36 0.24 -1.36 l9.48 0 c0.32 0 0.52 1.28 0.2 1.36 c-1.76 0.52 -3.28 0.84 -3.28 3.68 l0 15.56 c0 2.64 0.08 5.56 0.48 7.04 c0.16 0.6 -0.48 0.76 -1.12 0.76 z M160.04 40.08 c-0.4 0.04 -0.56 -1.36 -0.24 -1.44 c2.32 -0.6 4.12 -0.96 4.12 -3.92 l0 -17.76 c0 -2.56 -1.64 -3.24 -3.36 -3.68 c-0.32 -0.08 -0.12 -1.4 0.2 -1.36 c1.64 0.2 3.32 0.24 5 0.24 c3.12 0 5.92 -0.24 7.96 -0.24 c9.68 0 14.92 5.76 14.92 13.48 c0 7.68 -5.24 14.68 -14.96 14.68 c-1.92 0 -4.4 -0.24 -7.36 -0.24 c-2.48 0 -4.44 0.04 -6.28 0.24 z M174.07999999999998 37.96 c6.52 0 9.76 -3.52 9.76 -10.28 c0 -7.64 -4.16 -13.64 -11.36 -13.64 c-2.84 0 -3.76 0.88 -3.76 2.92 l0 17.76 c0 2.16 1.48 3.24 5.36 3.24 z M192.04 40.08 c-0.4 0.04 -0.56 -1.36 -0.24 -1.44 c2.32 -0.6 4.12 -0.96 4.12 -3.92 l0 -17.76 c0 -2.56 -1.64 -3.24 -3.36 -3.68 c-0.32 -0.08 -0.12 -1.4 0.2 -1.36 c2.92 0.32 7.96 0.24 10.4 0.24 c3.64 0 6.28 -0.16 9.56 -0.24 c0.96 0 0.96 0.64 0.76 1.56 l-0.96 3.8 c-0.12 0.56 -1.12 0.56 -1.28 0 c-0.6 -1.96 -1.8 -3.08 -6.8 -3.08 c-2.8 0 -3.72 0.72 -3.72 2.8 l0 6.52 c0 1.04 0.52 1.24 1.32 1.24 l0.88 0 c3.24 0 6.04 -0.32 7.68 -1.8 c0.4 -0.36 1.28 -0.28 0.92 0.52 l-2.28 5.04 c-0.32 0.72 -0.92 0.64 -1.36 0.04 c-0.92 -1.28 -2.96 -1.8 -5.28 -1.8 l-0.56 0 c-0.8 0 -1.32 0.2 -1.32 1.24 l0 6.72 c0 2.28 0.96 3.12 4.28 3.12 c6.04 0 8.44 -2.76 9.4 -4.28 c0.28 -0.44 1.36 -0.24 1.36 0.44 c0 2.04 -1.72 6.08 -4.24 6.08 c-2.24 -0.12 -4.44 -0.24 -7.8 -0.24 c-3.68 0 -8.04 -0.12 -11.68 0.24 z M248.35999999999999 39 c0.32 0 0.24 1.08 0 1.16 c-2.52 0.84 -6 0.72 -8.4 -2.36 l-6.16 -7.92 c-1.72 -2.24 -3.76 -2.56 -6.56 -2.6 l0 7.76 c0 2.8 1.92 3.28 4.48 3.6 c0.28 0.04 0.08 1.36 -0.24 1.36 l-12.12 0 c-0.32 0 -0.56 -1.32 -0.24 -1.36 c2.04 -0.28 3.32 -1.08 3.32 -3.6 l0 -17.84 c0 -2.64 -1.4 -3.4 -3.32 -3.92 c-0.32 -0.08 -0.12 -1.4 0.24 -1.36 c1.56 0.2 3.32 0.24 4.6 0.24 c2.96 0 5.72 -0.24 7.64 -0.24 c6.04 0 10.08 2.48 10.08 7.4 c0 4.64 -3.76 6.92 -7.12 7.12 l0 0.2 c1.6 0 2.76 0.68 4.52 2.88 l5.96 7.48 c1.24 1.56 2.44 2 3.32 2 z M228.39999999999998 25.439999999999998 c5.96 0 8.24 -1.04 8.24 -5.04 c0 -4.28 -2.72 -6.4 -6.28 -6.4 c-2.36 0 -3.12 0.96 -3.12 3.2 l0 8.24 l1.16 0 z"/></g><g id="SvgjsG14688" featureKey="sloganFeature-0" transform="matrix(0.7969644665718079,0,0,0.7969644665718079,123.36242836245111,46.21821390595295)" fill="#fff"><path d="M5 20 l0 -2.52 l0.46 0 l0.38 -0.38 l0 -7.74 l2.52 0 l0 8.78 l-1.86 1.86 l-1.5 0 z M2.66 20 l-1.86 -1.86 l0 -2.62 l2.52 0 l0 1.58 l0.38 0.38 l0.46 0 l0 2.52 l-1.5 0 z M4.16 8.52 l0 -2.52 l4.2 0 l0 2.52 l-4.2 0 z M21.707 20 l0 -2.52 l0.74 0 l0.38 -0.38 l0 -11.1 l2.52 0 l0 12.14 l-1.86 1.86 l-1.78 0 z M19.087 20 l-1.86 -1.86 l0 -12.14 l2.52 0 l0 11.1 l0.38 0.38 l0.74 0 l0 2.52 l-1.78 0 z M36.074 14.26 l-1.86 -1.86 l0 -4.54 l1.86 -1.86 l1.64 0 l0 2.52 l-0.6 0 l-0.38 0.38 l0 2.46 l0.38 0.38 l3.08 0 l1.86 1.86 l0 0.66 l-5.98 0 z M36.074 20 l-1.86 -1.86 l0 -2.62 l2.52 0 l0 1.58 l0.38 0.38 l2.04 0 l0.38 -0.38 l0 -2 l2.52 0 l0 3.04 l-1.86 1.86 l-4.12 0 z M39.534 10.48 l0 -1.58 l-0.38 -0.38 l-0.6 0 l0 -2.52 l1.64 0 l1.86 1.86 l0 2.62 l-2.52 0 z M53.581 20 l0 -10.64 l2.52 0 l0 10.64 l-2.52 0 z M50.921 8.52 l0 -2.52 l7.84 0 l0 2.52 l-7.84 0 z M78.29500000000002 20 l1.14 -5.6 l4.28 0 l-0.86 -4.28 l-0.68 3.44 l-2.58 0 l1.52 -7.56 l3.48 0 l2.2 10.92 l-5.3 0 l-0.62 3.08 l-2.58 0 z M84.855 20 l-0.46 -2.24 l2.58 0 l0.44 2.24 l-2.56 0 z M99.242 20 l0 -2.52 l1.86 0 l0.38 -0.38 l0 -8.2 l-0.38 -0.38 l-1.86 0 l0 -2.52 l2.9 0 l1.86 1.86 l0 10.28 l-1.86 1.86 l-2.9 0 z M95.882 20 l0 -14 l2.52 0 l0 14 l-2.52 0 z M116.22900000000001 20 l0 -2.52 l1.86 0 l0.38 -0.38 l0 -8.2 l-0.38 -0.38 l-1.86 0 l0 -2.52 l2.9 0 l1.86 1.86 l0 10.28 l-1.86 1.86 l-2.9 0 z M112.86900000000001 20 l0 -14 l2.52 0 l0 14 l-2.52 0 z M147.603 20 l-0.4 -2.56 l1.28 -8.18 l0.74 4.8 l1.26 -8.06 l2.56 0 l-2.18 14 l-3.26 0 z M142.70300000000003 20 l-2.18 -14 l2.56 0 l2.18 14 l-2.56 0 z M146.02300000000002 19.52 l-1.26 -8.18 l0.82 -5.34 l2.4 0 l0.08 0.54 z M166.07000000000002 20 l0 -2.52 l0.8 0 l0.38 -0.38 l0 -8.2 l-0.38 -0.38 l-0.8 0 l0 -2.52 l1.84 0 l1.86 1.86 l0 10.28 l-1.86 1.86 l-1.84 0 z M163.37 20 l-1.86 -1.86 l0 -10.28 l1.86 -1.86 l1.84 0 l0 2.52 l-0.8 0 l-0.38 0.38 l0 8.2 l0.38 0.38 l0.8 0 l0 2.52 l-1.84 0 z M184.11700000000002 20 l-5.48 -14 l2.72 0 l2.92 7.48 l0 -7.48 l2.52 0 l0 14 l-2.68 0 z M178.67700000000002 20 l0 -11.6 l2.52 6.42 l0 5.18 l-2.52 0 z M199.02400000000003 20 l0 -2.52 l1.86 0 l0.38 -0.38 l0 -8.2 l-0.38 -0.38 l-1.86 0 l0 -2.52 l2.9 0 l1.86 1.86 l0 10.28 l-1.86 1.86 l-2.9 0 z M195.66400000000004 20 l0 -14 l2.52 0 l0 14 l-2.52 0 z M212.65100000000004 14.26 l0 -8.26 l2.52 0 l0 8.26 l-2.52 0 z M212.65100000000004 20 l0 -4.9 l2.52 0 l0 4.9 l-2.52 0 z M216.01100000000002 20 l0 -2.52 l3.5 0 l0 2.52 l-3.5 0 z M216.01100000000002 14.26 l0 -2.52 l2.38 0 l0 2.52 l-2.38 0 z M216.01100000000002 8.52 l0 -2.52 l3.5 0 l0 2.52 l-3.5 0 z M234.07800000000003 20 l-1.36 -5.18 l-0.98 0 l0 -2.52 l1.58 0 l0.38 -0.38 l0 -3.02 l-0.38 -0.38 l-1.58 0 l0 -2.52 l2.62 0 l1.86 1.86 l0 5.1 l-1.08 1.1 l1.54 5.94 l-2.6 0 z M228.37800000000004 20 l0 -4.34 l2.52 0 l0 4.34 l-2.52 0 z M228.37800000000004 14.82 l0 -8.82 l2.52 0 l0 8.82 l-2.52 0 z"/></g>
			</g>
		</svg>
	